<svg width="55" height="49" viewBox="0 0 55 49" fill="none" xmlns="http://www.w3.org/2000/svg">
<g clip-path="url(#clip0_82_194)">
<path fill-rule="evenodd" clip-rule="evenodd" d="M0 0H3.23333V47.5216H51.7333V50.6897H0V0ZM32.3333 11.0884C32.3333 10.6682 32.5036 10.2653 32.8068 9.96827C33.11 9.6712 33.5212 9.50431 33.95 9.50431H46.8833C47.3121 9.50431 47.7233 9.6712 48.0265 9.96827C48.3296 10.2653 48.5 10.6682 48.5 11.0884V23.7608C48.5 24.1809 48.3296 24.5838 48.0265 24.8809C47.7233 25.1779 47.3121 25.3448 46.8833 25.3448C46.4545 25.3448 46.0433 25.1779 45.7402 24.8809C45.437 24.5838 45.2666 24.1809 45.2666 23.7608V15.5237L33.5846 29.5172C33.4416 29.6883 33.2636 29.8281 33.0622 29.9276C32.8607 30.0272 32.6402 30.0844 32.4148 30.0954C32.1894 30.1064 31.9642 30.0711 31.7536 29.9917C31.543 29.9124 31.3517 29.7906 31.1919 29.6344L22.8273 21.4386L11.0063 37.3646C10.7477 37.6868 10.3717 37.8982 9.95731 37.9545C9.54295 38.0107 9.12246 37.9074 8.78422 37.6662C8.44598 37.425 8.21632 37.0648 8.1435 36.6611C8.07068 36.2575 8.16037 35.842 8.39373 35.5018L21.3271 18.0772C21.4643 17.8919 21.641 17.738 21.8448 17.626C22.0486 17.5141 22.2748 17.4467 22.5078 17.4287C22.7407 17.4106 22.9749 17.4422 23.1942 17.5214C23.4134 17.6005 23.6126 17.7253 23.7779 17.8871L32.2137 26.1559L43.4721 12.6724H33.95C33.5212 12.6724 33.11 12.5055 32.8068 12.2085C32.5036 11.9114 32.3333 11.5085 32.3333 11.0884Z" fill="#173452"/>
<path d="M14.1997 13.7383C14.1997 13.7383 12.9789 13.7383 12.9789 12.5935C12.9789 11.4486 14.1997 8.01402 19.0829 8.01402C23.966 8.01402 25.1868 11.4486 25.1868 12.5935C25.1868 13.7383 23.966 13.7383 23.966 13.7383H14.1997ZM19.0829 6.86916C20.0542 6.86916 20.9857 6.5073 21.6726 5.86319C22.3594 5.21909 22.7452 4.34549 22.7452 3.43458C22.7452 2.52367 22.3594 1.65007 21.6726 1.00597C20.9857 0.361857 20.0542 0 19.0829 0C18.1115 0 17.18 0.361857 16.4932 1.00597C15.8063 1.65007 15.4205 2.52367 15.4205 3.43458C15.4205 4.34549 15.8063 5.21909 16.4932 5.86319C17.18 6.5073 18.1115 6.86916 19.0829 6.86916Z" fill="#173452"/>
<path fill-rule="evenodd" clip-rule="evenodd" d="M12.0218 13.7383C11.8409 13.3809 11.7506 12.989 11.7581 12.5934C11.7581 11.0422 12.5883 9.44508 14.1216 8.33457C13.3563 8.11342 12.5589 8.00528 11.7581 8.01401C6.87497 8.01401 5.65417 11.4486 5.65417 12.5934C5.65417 13.7383 6.87497 13.7383 6.87497 13.7383H12.0218Z" fill="#173452"/>
<path d="M11.1477 6.86917C11.9571 6.86917 12.7334 6.56762 13.3058 6.03086C13.8781 5.4941 14.1997 4.76611 14.1997 4.00702C14.1997 3.24793 13.8781 2.51993 13.3058 1.98317C12.7334 1.44641 11.9571 1.14487 11.1477 1.14487C10.3383 1.14487 9.56197 1.44641 8.98961 1.98317C8.41725 2.51993 8.0957 3.24793 8.0957 4.00702C8.0957 4.76611 8.41725 5.4941 8.98961 6.03086C9.56197 6.56762 10.3383 6.86917 11.1477 6.86917Z" fill="#173452"/>
</g>
<defs>
<clipPath id="clip0_82_194">
<rect width="55" height="49" fill="white"/>
</clipPath>
</defs>
</svg>
