<svg width="60" height="60" viewBox="0 0 60 60" fill="none" xmlns="http://www.w3.org/2000/svg">
<path d="M47.5001 5H22.5001C19.7426 5 17.5001 7.2425 17.5001 10V23.965L5.73258 35.7325C5.38305 36.0821 5.14504 36.5275 5.04862 37.0124C4.9522 37.4973 5.00171 37.9999 5.19088 38.4566C5.38006 38.9134 5.70041 39.3038 6.11143 39.5785C6.52246 39.8532 7.0057 39.9999 7.50008 40V52.5C7.50008 53.163 7.76347 53.7989 8.23231 54.2678C8.70115 54.7366 9.33704 55 10.0001 55H50.0001C50.6631 55 51.299 54.7366 51.7678 54.2678C52.2367 53.7989 52.5001 53.163 52.5001 52.5V10C52.5001 7.2425 50.2576 5 47.5001 5ZM27.5001 50H12.5001V36.035L20.0001 28.535L27.5001 36.035V50ZM47.5001 50H32.5001V40C32.995 40.0011 33.4791 39.8551 33.8909 39.5806C34.3027 39.3061 34.6236 38.9154 34.813 38.4582C35.0024 38.0009 35.0517 37.4977 34.9545 37.0125C34.8574 36.5272 34.6183 36.0817 34.2676 35.7325L22.5001 23.965V10H47.5001V50Z" fill="#173452"/>
<path d="M27.5 15H32.5V20H27.5V15ZM37.5 15H42.5V20H37.5V15ZM37.5 25.0775H42.5V30H37.5V25.0775ZM37.5 35H42.5V40H37.5V35ZM17.5 37.5H22.5V42.5H17.5V37.5Z" fill="#173452"/>
</svg>
