<svg width="50" height="55" viewBox="0 0 50 55" fill="none" xmlns="http://www.w3.org/2000/svg">
<path fill-rule="evenodd" clip-rule="evenodd" d="M48.9949 0.254903C49.2353 0.407385 49.4337 0.620312 49.5714 0.873497C49.709 1.12668 49.7814 1.41173 49.7815 1.70162V52.7623C49.7815 53.2137 49.6067 53.6466 49.2955 53.9658C48.9843 54.285 48.5622 54.4643 48.1221 54.4643H38.1658C37.7257 54.4643 37.3036 54.285 36.9925 53.9658C36.6813 53.6466 36.5064 53.2137 36.5064 52.7623V47.6562H33.1877V52.7623C33.1877 53.2137 33.0128 53.6466 32.7016 53.9658C32.3904 54.285 31.9684 54.4643 31.5283 54.4643H1.65938C1.21929 54.4643 0.797217 54.285 0.486022 53.9658C0.174827 53.6466 0 53.2137 0 52.7623V34.04C0.000264329 33.683 0.110011 33.335 0.313706 33.0454C0.517402 32.7559 0.804728 32.5393 1.13502 32.4265L19.9126 26.0065V15.3178C19.9126 15.002 19.9983 14.6924 20.1601 14.4237C20.3218 14.1549 20.5533 13.9377 20.8286 13.7962L47.3787 0.180014C47.632 0.0499995 47.9134 -0.0113743 48.1963 0.00173429C48.4792 0.0148429 48.7542 0.101998 48.9949 0.254903ZM19.9126 29.5944L3.31877 35.2655V51.0602H19.9126V29.5944ZM23.2314 51.0602H29.8689V45.9542C29.8689 45.5028 30.0437 45.0699 30.3549 44.7507C30.6661 44.4315 31.0882 44.2522 31.5283 44.2522H38.1658C38.6059 44.2522 39.028 44.4315 39.3392 44.7507C39.6504 45.0699 39.8252 45.5028 39.8252 45.9542V51.0602H46.4627V4.45549L23.2314 16.3696V51.0602Z" fill="#173452"/>
<path d="M6.6377 37.4444H9.95646V40.8485H6.6377V37.4444ZM13.2752 37.4444H16.594V40.8485H13.2752V37.4444ZM6.6377 44.2525H9.95646V47.6565H6.6377V44.2525ZM13.2752 44.2525H16.594V47.6565H13.2752V44.2525ZM26.5503 30.6363H29.8691V34.0404H26.5503V30.6363ZM33.1878 30.6363H36.5066V34.0404H33.1878V30.6363ZM26.5503 37.4444H29.8691V40.8485H26.5503V37.4444ZM33.1878 37.4444H36.5066V40.8485H33.1878V37.4444ZM39.8254 30.6363H43.1441V34.0404H39.8254V30.6363ZM39.8254 37.4444H43.1441V40.8485H39.8254V37.4444ZM26.5503 23.8282H29.8691V27.2323H26.5503V23.8282ZM33.1878 23.8282H36.5066V27.2323H33.1878V23.8282ZM39.8254 23.8282H43.1441V27.2323H39.8254V23.8282ZM26.5503 17.0202H29.8691V20.4242H26.5503V17.0202ZM33.1878 17.0202H36.5066V20.4242H33.1878V17.0202ZM39.8254 17.0202H43.1441V20.4242H39.8254V17.0202ZM39.8254 10.2121H43.1441V13.6161H39.8254V10.2121Z" fill="#173452"/>
</svg>
